<?xml version="1.0" standalone="no"?>
<!DOCTYPE svg PUBLIC "-//W3C//DTD SVG 20010904//EN"
 "http://www.w3.org/TR/2001/REC-SVG-20010904/DTD/svg10.dtd">
<svg version="1.0" xmlns="http://www.w3.org/2000/svg"
 width="1020.000000pt" height="350.000000pt" viewBox="0 0 1020.000000 350.000000"
 preserveAspectRatio="xMidYMid meet">

<g transform="translate(0.000000,350.000000) scale(0.100000,-0.100000)"
fill="#000000" stroke="none">
<path d="M1554 3481 c-17 -10 -58 -57 -91 -102 -82 -113 -383 -566 -472 -711
l-73 -117 -268 -90 c-360 -120 -524 -186 -550 -218 -24 -31 -26 -90 -4 -122 9
-12 98 -90 198 -173 99 -83 181 -153 181 -157 0 -3 -55 -114 -121 -246 -149
-294 -262 -549 -316 -709 -35 -104 -40 -129 -35 -180 6 -65 25 -98 77 -134 50
-34 113 -30 181 11 68 41 309 218 643 471 223 170 261 195 275 184 26 -21 335
-301 629 -572 292 -269 358 -316 435 -316 55 1 115 29 154 73 73 83 71 172
-12 397 -111 301 -194 567 -288 927 -33 122 -34 133 -19 146 45 40 612 403
872 560 172 103 212 134 236 179 35 66 0 156 -76 195 -57 29 -204 43 -450 43
-260 0 -670 -30 -775 -56 -19 -5 -22 9 -64 278 -54 354 -58 371 -83 404 -42
53 -128 69 -184 35z m87 -1 c30 -17 22 -30 -10 -17 -17 6 -28 15 -25 19 7 10
11 10 35 -2z m-171 -365 c13 -16 80 -404 71 -409 -3 -2 -71 -18 -151 -36 -80
-17 -180 -40 -224 -51 -43 -11 -81 -18 -84 -15 -6 7 273 425 323 484 40 46 47
49 65 27z m1642 -356 c43 -22 71 -67 63 -104 -3 -14 -7 -36 -10 -50 -7 -34
-25 -22 -25 16 0 58 -59 131 -118 146 -24 6 -25 7 -7 14 23 9 46 3 97 -22z
m-491 -159 c27 -15 24 -42 -8 -72 -29 -27 -616 -419 -620 -414 -4 4 -93 434
-93 450 0 10 24 16 93 21 301 24 597 31 628 15z m59 -39 c0 -23 -15 -41 -34
-41 -1 0 -1 20 -1 44 0 39 2 43 18 35 10 -6 17 -21 17 -38z m-1091 -88 c7 -38
33 -165 58 -283 25 -118 48 -227 50 -241 5 -25 -14 -40 -304 -234 -169 -114
-314 -210 -321 -212 -6 -3 -51 28 -99 68 -47 41 -134 114 -192 162 -58 49
-112 95 -120 102 -12 11 0 38 74 177 77 142 232 417 240 426 2 2 110 23 241
47 394 72 357 73 373 -12z m49 -83 c0 -22 -1 -22 -8 5 -4 17 -8 39 -8 50 0 16
2 15 8 -5 4 -14 8 -36 8 -50z m-818 4 c0 -3 -49 -89 -108 -192 -60 -103 -120
-207 -133 -232 -14 -25 -28 -44 -32 -43 -18 4 -316 246 -322 261 -4 11 2 23
15 34 24 19 183 74 394 134 147 42 186 50 186 38z m827 -66 c-3 -7 -5 -2 -5
12 0 14 2 19 5 13 2 -7 2 -19 0 -25z m10 -50 c-3 -7 -5 -2 -5 12 0 14 2 19 5
13 2 -7 2 -19 0 -25z m10 -50 c-3 -8 -6 -5 -6 6 -1 11 2 17 5 13 3 -3 4 -12 1
-19z m-970 -619 c65 -55 146 -124 180 -152 34 -29 62 -54 62 -57 0 -7 -551
-397 -598 -423 -32 -17 -44 -20 -58 -11 -39 25 -23 75 138 417 84 180 155 327
156 327 1 0 55 -45 120 -101z m1133 -189 c29 -107 63 -226 76 -265 92 -286
134 -430 129 -446 -4 -11 -15 -19 -26 -19 -18 0 -132 94 -300 246 -41 38 -150
134 -242 214 -129 112 -164 148 -154 157 35 33 453 321 458 315 3 -4 30 -95
59 -202z m-1073 -212 c-124 -97 -327 -229 -379 -247 -41 -14 -34 -8 77 67 50
34 140 97 200 140 70 50 113 75 117 68 4 -6 -3 -19 -15 -28z m1132 -450 c50
-43 97 -79 104 -79 25 -3 42 3 54 19 11 15 12 13 13 -14 0 -17 -7 -37 -15 -44
-27 -22 -75 9 -200 133 -123 122 -116 120 44 -15z"/>
<path d="M3502 2308 c3 -381 4 -395 26 -449 41 -103 114 -168 234 -210 92 -33
283 -33 384 -1 90 27 158 74 201 136 64 93 66 110 71 534 l3 382 -115 0 -116
0 0 -354 c0 -391 -3 -412 -63 -474 -42 -43 -120 -66 -200 -59 -81 7 -142 46
-176 112 l-26 50 -3 363 -3 362 -110 0 -110 0 3 -392z"/>
<path d="M4640 2170 l0 -530 110 0 110 0 0 350 c0 193 3 350 8 349 4 0 132
-158 286 -350 l278 -349 104 0 104 0 0 530 0 530 -115 0 -115 0 0 -342 -1
-343 -27 34 c-15 19 -139 174 -275 343 l-249 308 -109 0 -109 0 0 -530z"/>
<path d="M5870 2170 l0 -530 110 0 110 0 0 530 0 530 -110 0 -110 0 0 -530z"/>
<path d="M6320 2170 l0 -530 110 0 110 0 0 225 0 225 170 0 170 0 0 90 0 90
-170 0 -170 0 0 125 0 125 172 2 171 3 27 88 28 87 -309 0 -309 0 0 -530z"/>
<path d="M7140 2171 l0 -531 110 0 110 0 0 195 0 195 40 0 c76 0 92 -16 206
-210 l107 -180 123 0 c68 0 124 4 124 8 0 21 -234 401 -264 429 l-35 32 46 22
c105 51 163 147 163 270 0 124 -55 213 -170 275 -31 17 -63 19 -297 22 l-263
3 0 -530z m431 326 c102 -69 105 -187 6 -261 -24 -18 -43 -21 -120 -21 l-92 0
-3 153 -3 152 89 0 c76 0 94 -3 123 -23z"/>
<path d="M8291 2203 c-107 -274 -200 -513 -208 -530 l-13 -33 117 0 118 0 45
125 45 125 189 -2 189 -3 46 -122 46 -123 117 0 c65 0 118 4 118 8 0 5 -96
242 -213 528 l-213 519 -95 3 -94 3 -194 -498z m354 42 c30 -88 55 -161 55
-162 0 -2 -52 -3 -115 -3 -63 0 -115 3 -115 7 0 21 106 323 112 321 4 -2 33
-75 63 -163z"/>
<path d="M9200 2170 l0 -530 115 0 115 0 0 356 0 356 78 -100 c42 -55 169
-214 282 -355 l205 -256 103 -1 102 0 0 530 0 530 -110 0 -110 0 0 -340 c0
-187 -3 -340 -7 -340 -5 0 -18 15 -31 33 -12 17 -133 170 -270 339 l-247 308
-112 0 -113 0 0 -530z"/>
<path d="M6320 1315 l0 -95 -60 0 c-127 0 -203 -78 -204 -206 0 -81 35 -143
97 -173 49 -24 152 -29 206 -10 l31 11 0 284 0 284 -35 0 -35 0 0 -95z m-5
-295 l0 -135 -42 -3 c-81 -6 -143 53 -143 136 0 87 58 145 140 140 l45 -3 0
-135z"/>
<path d="M7100 1315 l0 -95 -63 0 c-121 0 -197 -80 -197 -206 0 -72 21 -116
73 -158 34 -27 48 -31 112 -34 40 -2 89 1 109 8 l36 12 0 284 0 284 -35 0 -35
0 0 -95z m-2 -292 l-3 -138 -45 -3 c-107 -6 -172 102 -123 205 22 47 66 73
126 73 l48 0 -3 -137z"/>
<path d="M5910 1370 c-24 -24 -25 -43 -4 -64 18 -19 55 -21 72 -4 19 19 14 55
-10 72 -29 20 -34 20 -58 -4z"/>
<path d="M4402 1368 c-28 -28 -7 -78 33 -78 27 0 45 18 45 45 0 27 -18 45 -45
45 -12 0 -26 -5 -33 -12z"/>
<path d="M3490 1196 c0 -244 13 -297 83 -350 34 -25 148 -34 212 -16 51 14
101 63 115 111 6 18 10 123 10 231 l0 198 -35 0 -35 0 0 -190 c0 -208 -7 -245
-54 -275 -63 -42 -159 -24 -196 37 -18 30 -20 50 -20 231 l0 197 -40 0 -40 0
0 -174z"/>
<path d="M4117 1200 c-44 -24 -47 -24 -47 -5 0 10 -11 15 -35 15 l-35 0 0
-190 0 -190 35 0 35 0 0 133 c0 149 1 152 73 182 48 20 63 19 87 -5 18 -18 20
-33 20 -165 l0 -145 40 0 40 0 0 133 c0 207 -24 257 -122 257 -34 0 -67 -7
-91 -20z"/>
<path d="M4999 1193 c-69 -58 -92 -190 -48 -280 40 -83 149 -117 249 -77 34
14 40 20 34 38 -9 30 -9 30 -45 17 -86 -30 -160 6 -184 87 -6 22 -6 22 119 22
l126 0 0 47 c0 60 -33 129 -74 154 -21 13 -50 19 -88 19 -47 0 -62 -5 -89 -27z
m149 -59 c12 -14 22 -36 22 -50 0 -23 -2 -24 -79 -24 -44 0 -83 5 -86 10 -10
15 27 73 56 87 30 16 58 8 87 -23z"/>
<path d="M5432 1200 c-39 -24 -42 -24 -42 -5 0 10 -10 15 -30 15 l-30 0 0
-190 0 -190 35 0 35 0 0 139 c0 139 0 140 26 160 16 13 41 21 64 21 30 0 39 5
48 25 7 14 12 30 12 35 0 18 -84 11 -118 -10z"/>
<path d="M5631 1206 c-48 -27 -64 -91 -36 -146 10 -19 36 -38 80 -59 80 -38
101 -70 67 -104 -25 -25 -93 -28 -133 -7 -19 11 -25 10 -36 -6 -7 -10 -13 -23
-13 -30 0 -18 56 -34 122 -34 98 0 148 39 148 118 0 53 -24 80 -105 118 -62
30 -81 54 -66 83 14 25 55 31 113 16 l48 -12 0 32 c0 25 -5 34 -22 39 -40 10
-142 6 -167 -8z"/>
<path d="M6523 1203 c-36 -18 -38 -24 -23 -54 10 -18 13 -18 40 -4 16 8 49 15
73 15 48 0 71 -17 82 -61 6 -26 6 -26 -64 -32 -39 -3 -86 -13 -105 -22 -83
-39 -87 -168 -6 -210 41 -21 108 -19 148 5 28 17 33 18 38 5 4 -9 19 -15 38
-15 l31 0 -5 157 c-5 164 -11 189 -52 217 -30 22 -152 20 -195 -1z m175 -239
c3 -35 -1 -45 -24 -63 -49 -38 -127 -22 -134 29 -8 54 31 81 110 77 l45 -2 3
-41z"/>
<path d="M7323 1200 c-50 -30 -77 -92 -77 -175 -1 -127 56 -196 168 -203 98
-6 149 22 130 71 -5 13 -10 14 -39 1 -72 -30 -141 -10 -169 50 -9 19 -16 39
-16 45 0 7 41 11 125 11 l125 0 0 33 c0 58 -21 111 -60 149 -35 35 -42 38 -96
38 -41 0 -69 -6 -91 -20z m152 -81 c29 -55 24 -59 -70 -59 -92 0 -97 3 -73 56
27 59 114 61 143 3z"/>
<path d="M4400 1015 l0 -195 35 0 35 0 0 195 0 195 -35 0 -35 0 0 -195z"/>
<path d="M4582 1108 c22 -57 56 -145 75 -195 33 -86 38 -93 63 -93 30 0 20
-19 123 230 20 47 43 102 51 123 l16 37 -37 0 -38 0 -54 -141 c-30 -77 -57
-136 -61 -132 -4 4 -27 62 -50 128 -23 66 -45 126 -47 133 -3 6 -22 12 -43 12
l-38 0 40 -102z"/>
<path d="M5910 1020 l0 -190 35 0 35 0 0 190 0 190 -35 0 -35 0 0 -190z"/>
<path d="M3760 500 l0 -90 -50 0 c-128 0 -210 -83 -210 -212 0 -125 74 -193
205 -191 39 0 82 6 98 12 l27 11 0 280 0 280 -35 0 -35 0 0 -90z m-16 -156
c14 -5 16 -27 16 -140 0 -149 5 -141 -75 -135 -94 7 -148 129 -92 212 34 52
104 81 151 63z"/>
<path d="M4520 295 l0 -275 35 0 35 0 0 125 0 125 85 0 85 0 0 30 0 29 -82 3
-83 3 0 85 0 85 86 3 c80 3 87 5 93 25 3 12 6 25 6 30 0 4 -58 7 -130 7 l-130
0 0 -275z"/>
<path d="M4915 400 c-36 -24 -45 -25 -45 -5 0 10 -10 15 -30 15 l-30 0 0 -195
0 -195 35 0 35 0 0 144 c0 144 0 145 26 165 16 13 41 21 64 21 30 0 39 5 49
26 6 14 9 30 6 35 -11 16 -79 9 -110 -11z"/>
<path d="M5117 399 c-36 -19 -37 -20 -21 -44 15 -23 18 -24 44 -10 67 35 150
8 150 -49 0 -22 -5 -24 -67 -31 -120 -12 -163 -49 -163 -136 0 -33 6 -47 34
-75 30 -30 40 -34 88 -34 35 0 64 7 85 20 32 19 32 19 38 0 4 -14 15 -20 37
-20 l30 0 -4 163 c-3 176 -10 201 -64 225 -40 19 -143 14 -187 -9z m173 -238
c0 -40 -4 -53 -22 -65 -32 -23 -94 -20 -118 4 -52 52 -1 107 103 109 l37 1 0
-49z"/>
<path d="M5575 399 c-35 -19 -40 -20 -50 -5 -7 9 -24 16 -39 16 l-26 0 0 -195
0 -195 35 0 35 0 0 139 c0 138 0 140 26 160 39 31 89 44 114 31 33 -18 40 -52
40 -196 l0 -134 35 0 35 0 0 156 c0 171 -10 212 -56 233 -39 17 -105 13 -149
-10z"/>
<path d="M5964 401 c-18 -11 -44 -36 -60 -57 -23 -30 -29 -49 -32 -104 -2 -38
1 -84 7 -103 18 -52 80 -104 134 -112 59 -9 157 18 157 43 0 37 -13 42 -61 25
-41 -15 -50 -15 -85 -2 -22 8 -48 29 -61 48 -43 64 -22 176 40 207 30 16 104
16 140 0 14 -7 17 -3 17 23 0 25 -6 34 -26 41 -44 17 -136 12 -170 -9z"/>
<path d="M6311 409 c-44 -17 -51 -28 -39 -55 13 -28 15 -28 48 -9 62 36 150 7
150 -49 0 -22 -5 -24 -67 -31 -83 -9 -107 -18 -138 -51 -20 -21 -25 -38 -25
-76 0 -43 4 -54 34 -84 30 -30 40 -34 88 -34 35 0 64 7 85 20 32 19 32 19 38
0 4 -14 15 -20 36 -20 l30 0 -6 158 c-7 175 -15 206 -56 227 -32 17 -141 19
-178 4z m159 -248 c0 -58 -13 -72 -74 -78 -35 -4 -48 -1 -65 16 -24 24 -28 63
-7 80 20 17 64 29 109 30 l37 1 0 -49z"/>
<path d="M4015 400 c-83 -34 -123 -152 -91 -262 34 -118 153 -166 273 -111 29
13 31 17 21 39 -8 17 -17 23 -27 18 -32 -13 -118 -16 -140 -4 -26 13 -61 67
-61 93 0 15 13 17 126 17 l127 0 -6 51 c-13 106 -72 170 -156 168 -25 0 -55
-4 -66 -9z m113 -72 c11 -13 24 -35 27 -50 l7 -28 -86 0 c-78 0 -86 2 -86 19
0 11 12 33 26 50 32 39 80 42 112 9z"/>
</g>
</svg>
