<?xml version="1.0" standalone="no"?>
<!DOCTYPE svg PUBLIC "-//W3C//DTD SVG 20010904//EN"
 "http://www.w3.org/TR/2001/REC-SVG-20010904/DTD/svg10.dtd">
<svg version="1.0" xmlns="http://www.w3.org/2000/svg"
 width="225.000000pt" height="225.000000pt" viewBox="0 0 225.000000 225.000000"
 preserveAspectRatio="xMidYMid meet">

<g transform="translate(0.000000,225.000000) scale(0.100000,-0.100000)"
fill="#000000" stroke="none">
<path d="M1088 1732 c-12 -15 -70 -100 -128 -188 l-105 -161 -85 -28 c-172
-56 -239 -85 -246 -108 -7 -22 16 -47 115 -127 l43 -35 -59 -120 c-69 -138
-133 -293 -133 -323 0 -12 10 -33 23 -48 19 -22 29 -26 50 -20 15 3 108 67
207 142 l181 135 37 -32 c20 -18 104 -93 185 -168 81 -75 161 -142 177 -148
37 -16 72 -4 96 32 21 32 15 73 -26 178 -16 42 -48 141 -70 220 -23 78 -43
147 -45 154 -4 11 195 147 344 235 41 24 83 56 95 71 l20 27 -21 28 c-15 20
-33 29 -69 35 -53 9 -320 1 -396 -12 -56 -9 -50 -20 -74 138 -18 119 -34 151
-73 151 -11 0 -30 -13 -43 -28z m1 -185 c19 -107 21 -103 -61 -121 -40 -9 -84
-19 -97 -23 -20 -5 -13 9 48 101 39 58 78 106 85 106 9 0 18 -22 25 -63z m448
-154 c4 -11 -220 -169 -248 -175 -10 -3 -48 127 -49 169 0 22 290 28 297 6z
m-395 -135 c14 -68 25 -123 24 -124 0 0 -58 -39 -127 -86 l-126 -85 -84 70
c-46 38 -83 73 -82 76 2 9 122 223 128 229 7 8 174 40 211 41 l31 1 25 -122z
m-325 65 c-2 -5 -27 -49 -56 -100 l-53 -92 -64 50 c-35 28 -64 57 -64 65 0 8
37 25 103 44 56 18 107 33 112 35 18 6 26 5 22 -2z m-28 -329 c36 -31 67 -60
69 -64 3 -8 -212 -165 -241 -176 -36 -13 -27 30 34 161 35 74 65 135 68 135 2
0 34 -25 70 -56z m421 -26 c7 -29 31 -111 52 -182 22 -73 35 -133 30 -138 -7
-7 -287 226 -287 239 0 4 179 132 186 133 3 0 11 -24 19 -52z"/>
</g>
</svg>
